<svg width="228" height="227" viewBox="0 0 228 227" fill="none" xmlns="http://www.w3.org/2000/svg">
<g id="logo-academic">
<g id="Vector 2">
<path d="M133.5 33.5L202.5 153C204.833 153.333 209.7 154.2 210.5 155C211.3 155.8 214.833 158 216.5 159C219.333 151.667 225.1 136.1 225.5 132.5C226 128 227.5 105 226.5 101C225.5 97 222.5 81.5 222 80C221.5 78.5 213.5 58.5 212.5 57.5C211.5 56.5 203.5 44.5 201.5 42C199.9 40 189.5 29.8333 184.5 25C179.5 21.5 169.1 14.3 167.5 13.5C165.9 12.7 153.833 7.83333 148 5.5C145 4.5 138.8 2.5 138 2.5C137.2 2.5 132.333 2.16667 130 2C132.667 5.66667 137.9 13.8 137.5 17C137 21 137 25.5 136 26.5C135 27.5 132.5 30.5 132.5 31.5C132.5 32.3 133.167 33.1667 133.5 33.5Z" fill="#29A0C7"/>
<path d="M118.5 40.5L187 159L181 168H46.5L42 159L111.5 40.5H118.5Z" fill="#29A0C7"/>
<path d="M46.5 184H181C182 185.833 184.3 189.7 185.5 190.5C186.7 191.3 190.333 193.833 192 195L178.5 206C169.333 210.667 150.6 220.1 149 220.5C147 221 124 226 115 226C107.8 226 94 224.333 88 223.5C77.8333 219.833 56.9 212 54.5 210C52.1 208 41.1667 199.5 36 195.5C39.5 192.5 46.5 186 46.5 184Z" fill="#29A0C7"/>
<path d="M98 33.5L28 153.5C25.1667 153.167 19.2 152.8 18 154C16.8 155.2 12.5 157.833 10.5 159C7.33333 150.5 1 132.4 1 128C1 122.5 2.5 86.5 5.5 79C8.5 71.5 18 52 22 47C25.2 43 37 30.6667 42.5 25C46.1667 22 54.1 15.8 56.5 15C59.5 14 70.5 7 77.5 5.5C83.1 4.3 95.8333 2 101.5 1C99 4.33333 94 11.8 94 15C94 19 92.5 24.5 94.5 26C96.1 27.2 97.5 30.1667 98 31.5V33.5Z" fill="#29A0C7"/>
<path d="M133.5 33.5L202.5 153C204.833 153.333 209.7 154.2 210.5 155C211.3 155.8 214.833 158 216.5 159C219.333 151.667 225.1 136.1 225.5 132.5C226 128 227.5 105 226.5 101C225.5 97 222.5 81.5 222 80C221.5 78.5 213.5 58.5 212.5 57.5C211.5 56.5 203.5 44.5 201.5 42C199.9 40 189.5 29.8333 184.5 25C179.5 21.5 169.1 14.3 167.5 13.5C165.9 12.7 153.833 7.83333 148 5.5C145 4.5 138.8 2.5 138 2.5C137.2 2.5 132.333 2.16667 130 2C132.667 5.66667 137.9 13.8 137.5 17C137 21 137 25.5 136 26.5C135 27.5 132.5 30.5 132.5 31.5C132.5 32.3 133.167 33.1667 133.5 33.5Z" stroke="black"/>
<path d="M118.5 40.5L187 159L181 168H46.5L42 159L111.5 40.5H118.5Z" stroke="black"/>
<path d="M46.5 184H181C182 185.833 184.3 189.7 185.5 190.5C186.7 191.3 190.333 193.833 192 195L178.5 206C169.333 210.667 150.6 220.1 149 220.5C147 221 124 226 115 226C107.8 226 94 224.333 88 223.5C77.8333 219.833 56.9 212 54.5 210C52.1 208 41.1667 199.5 36 195.5C39.5 192.5 46.5 186 46.5 184Z" stroke="black"/>
<path d="M98 33.5L28 153.5C25.1667 153.167 19.2 152.8 18 154C16.8 155.2 12.5 157.833 10.5 159C7.33333 150.5 1 132.4 1 128C1 122.5 2.5 86.5 5.5 79C8.5 71.5 18 52 22 47C25.2 43 37 30.6667 42.5 25C46.1667 22 54.1 15.8 56.5 15C59.5 14 70.5 7 77.5 5.5C83.1 4.3 95.8333 2 101.5 1C99 4.33333 94 11.8 94 15C94 19 92.5 24.5 94.5 26C96.1 27.2 97.5 30.1667 98 31.5V33.5Z" stroke="black"/>
</g>
</g>
</svg>
